<svg width="16" height="16" viewBox="0 0 80 80" fill="none" xmlns="http://www.w3.org/2000/svg">
  <path d="M67.383 47.174c1.41-2.643-4.043-7.336-10.345-3.056a18.404 18.404 0 0 0-2.217 1.938c-1.799 1.841-4.052 3.204-5.736 1.183-1.683-2.022-.681-8.124.204-11.333l-6.473-2.008c-.144 1.312-.918 4.034-1.391 3.992-.473-.041-.051-1.038.05-2.16.103-1.123-8.406 2.893-8.828 3.097-.315.153-4.386-1.113-6.63.334-.747.482-3.024 4.057-3.224 4.104 0 0-.514-4.308-.987-6.38-.483-2.069-6.432 6.788-5.671 8.976 1.293 3.738.436 16.439 6.923 22.04 7.507 6.478 21.219 4.646 26.176-1.103 4.957-5.75 3.269-8.75 7.818-13.197 3.853-3.77 8.578-4.387 10.33-6.427Z" fill="url(#a)"/>
  <path d="M21.797 36.884c-.474-2.073-1.405-7.725-2.254-10.744s-2.606-4.243-5.06-3.343c-2.452.9-1.177 6.482-.95 7.85.348 2.092 1.846 13.03 2.602 15.214" fill="url(#b)"/>
  <path d="M32.642 38.827c-2.003.019-3.139-2.513-3.848-6.116-.543-2.75-1.827-10.28-2.653-14.226-1.024-4.892-2.188-6.06-4.595-5.88-2.406.176-2.986 3.26-2.397 6.496.496 2.736 1.47 7.016 2.773 12.353.779 3.2 1.67 11.616.867 11.81" fill="url(#c)"/>
  <path d="M49.29 35.906c.88-3.21 2.666-14.695 3.366-17.742.7-3.046-.909-4.808-2.88-5.244-1.975-.436-3.658.728-4.804 6.807-.723 3.835-1.242 7.257-2.156 14.17l3.524 5.24 2.95-3.231Z" fill="url(#d)"/>
  <path d="M41.471 35.73c.103-1.122 2.013-11.866 2.365-14.236.742-4.952 2.782-12.195-1.58-13.36-2.81-.746-3.859 1.8-4.184 2.945-.324 1.146-2.244 14.375-2.35 15.58-.112 1.206-1.892 11.737-3.08 12.168" fill="url(#e)"/>
  <path d="M47.189 13.732c-.9 1.006-1.646 2.958-2.217 5.995-.723 3.835-1.196 7.267-2.156 14.171-.18 1.308-.918 4.034-1.391 3.993 2.856-1.299 3.195-11.607 3.909-16.295.756-4.98 2.527-8.62 1.855-7.864Z" fill="url(#f)"/>
  <path d="M35.722 26.66c-.112 1.205-1.79 11.587-3.08 12.167 0 0 1.61 1.284 2.602-5.022.84-5.337 2.198-14.968 3.288-18.914 1.024-3.72.714-6.07.338-5.555-.375.514-.672 1.303-.797 1.743-.32 1.146-2.24 14.375-2.351 15.58Z" fill="url(#g)"/>
  <path d="M19.144 19.101c.496 2.736 1.47 7.016 2.773 12.353.78 3.2 1.67 11.616.867 11.81 4.234-.639-4.326-25.577-2.712-30.024-1.15 1.095-1.368 3.436-.928 5.861Z" fill="url(#h)"/>
  <path d="M26.995 27.406c1.256 6.566 1.558 11.792 5.647 11.421-1.6 0-3.028-1.813-3.848-6.116-.524-2.755-1.8-10.285-2.653-14.226-.908-4.178-1.595-5.245-3.26-5.801 3.39 3.997 2.55 6.552 4.114 14.722Z" fill="url(#i)"/>
  <path d="M42.352 23.205c-.672 5.027-2.133 13.916-1.07 14.63-.372-.241.097-1.104.19-2.105.101-1.123 2.012-11.867 2.364-14.236.464-3.074 1.651-7.87.83-10.846.098 3.607-1.766 8.486-2.314 12.557Z" fill="url(#j)"/>
  <path d="M48.149 43.9c-.019-2.068.607-6.051 1.14-7.994.881-3.209 2.667-14.695 3.367-17.741.213-.927.213-1.734.05-2.425-.32 1.41-1.256 2.898-1.543 5.694-.464 4.484-2.3 11.463-2.93 13.86-.631 2.397-.682 5.198-.084 8.606Z" fill="url(#k)"/>
  <path d="M36.58 71.963c.927-2.782.774-5.091-2.023-5.458-7.618-.992-13.27-7.233-15.821-18.858-2.277-10.364-5.328-18.966-4.535-24.711-2.059 1.224-.886 6.4-.668 7.711.348 2.092 1.846 13.03 2.602 15.214 1.293 3.738.435 16.439 6.923 22.04 3.621 3.126 8.69 4.313 13.521 4.062Z" fill="url(#l)"/>
  <path d="M15.105 36.513a.533.533 0 0 1 .01-.06c4.808 15.2 6.232 24.117 14.383 33.72 1.15 1.355-1.293 1.28-3.278-.19a15.25 15.25 0 0 1-3.162-2.086c-6.492-5.597-5.63-18.298-6.923-22.035-.404-1.155-.446-6.627-1.03-9.349Z" fill="url(#m)"/>
  <path d="M53.801 53.146c1.164 1.396-2.74 7.29-5.704 9.757-2.962 2.467-6.306 3.33-7.47 1.933-1.164-1.395 1.475-4.901 3.775-7.994 3.97-5.337 8.235-5.091 9.4-3.696Z" fill="url(#n)"/>
  <path opacity=".75" d="M20.79 51.82c-1.289 1.549 2.63 10.484 6.497 12.733 3.867 2.25 8.713 1.558 9.659-.227.946-1.79-3.075-4.567-6.362-7.646-5.676-5.31-8.505-6.409-9.794-4.86Z" fill="url(#o)"/>
  <path d="M22.784 43.265s-.552-4.48-.987-6.38c-.474-2.073-1.406-7.726-2.254-10.744-.376-1.327-.923-2.305-1.628-2.912.594 1.446 1.623 4.256 2.537 10.335 1.474 10.707 2.207 9.808 2.332 9.701Z" fill="url(#p)"/>
  <path d="M57.038 44.118a18.41 18.41 0 0 0-2.217 1.938c-1.799 1.841-4.052 3.205-5.736 1.183-.663-.798-.927-1.99-.936-3.339-.979 6.826 2.75 6.06 5.453 4.08 2.703-1.98 5.166-5.721 10.262-4.905.918.148 1.78.491 2.42.75-1.84-1.58-5.384-2.332-9.246.293Z" fill="url(#q)"/>
  <path d="M49.234 66.798c4.957-5.75 3.269-8.75 7.818-13.197 3.853-3.766 8.574-4.382 10.33-6.427.242-.45.27-.96.14-1.475-1.025 1.818-3.849 1.985-7.1 3.747-4.697 2.55-6.932 4.841-8.972 10.113-2.04 5.273-8.648 7.749-13.086 6.993l10.87.246Z" fill="url(#r)"/>
  <path d="M13.144 24.698c-.427 2.036.232 5.004.39 5.95.347 2.09 1.845 13.025 2.6 15.214 1.294 3.737.436 16.438 6.924 22.04 7.507 6.477 21.219 4.646 26.176-1.104 4.957-5.746 3.269-8.746 7.822-13.197 3.854-3.765 8.574-4.382 10.332-6.427l.514-1.048c-.195-.167-.347-.32-.37-.427-1.025 1.818-3.427 3.306-7.1 3.747-4.368.529-6.932 3.32-8.973 8.592-2.04 5.273-8.648 9.274-13.085 8.514-4.438-.76-14.996 3.635-18.558-14.695 0-.004 0-.01-.004-.014-.135-1.215-.325-2.703-.677-3.695-2.44-6.868-3.756-15.78-4.234-19.694-.102-.765.023-3.366-1.757-3.756Z" fill="url(#s)"/>
  <defs>
    <linearGradient id="a" x1="30.522" y1="78.112" x2="38.65" y2="54.832" gradientUnits="userSpaceOnUse">
      <stop offset=".001" stop-color="#FFCB4B"/>
      <stop offset="1" stop-color="#FFD748"/>
    </linearGradient>
    <linearGradient id="b" x1="13.791" y1="25.984" x2="19.015" y2="38.812" gradientUnits="userSpaceOnUse">
      <stop offset=".001" stop-color="#FFCB4B"/>
      <stop offset="1" stop-color="#FFD748"/>
    </linearGradient>
    <linearGradient id="c" x1="24.855" y1="9.606" x2="26.229" y2="36.681" gradientUnits="userSpaceOnUse">
      <stop offset=".001" stop-color="#FFCB4B"/>
      <stop offset="1" stop-color="#FFD748"/>
    </linearGradient>
    <linearGradient id="d" x1="50.191" y1="17.877" x2="44.062" y2="37.022" gradientUnits="userSpaceOnUse">
      <stop offset=".001" stop-color="#FFCB4B"/>
      <stop offset="1" stop-color="#FFD748"/>
    </linearGradient>
    <linearGradient id="e" x1="39.842" y1="12.37" x2="38.113" y2="35.48" gradientUnits="userSpaceOnUse">
      <stop offset=".001" stop-color="#FFCB4B"/>
      <stop offset="1" stop-color="#FFD748"/>
    </linearGradient>
    <linearGradient id="f" x1="47.865" y1="26.215" x2="42.855" y2="25.565" gradientUnits="userSpaceOnUse">
      <stop stop-color="#FFBC47" stop-opacity="0"/>
      <stop offset="1" stop-color="#E68E43"/>
    </linearGradient>
    <linearGradient id="g" x1="61.309" y1="23.553" x2="27.344" y2="24.286" gradientUnits="userSpaceOnUse">
      <stop stop-color="#FFBC47" stop-opacity="0"/>
      <stop offset="1" stop-color="#E68E43"/>
    </linearGradient>
    <linearGradient id="h" x1="27.596" y1="26.884" x2="19.898" y2="28.594" gradientUnits="userSpaceOnUse">
      <stop offset=".312" stop-color="#FFBC47" stop-opacity="0"/>
      <stop offset="1" stop-color="#FF8900"/>
    </linearGradient>
    <linearGradient id="i" x1="21.146" y1="27.55" x2="29.607" y2="25.255" gradientUnits="userSpaceOnUse">
      <stop stop-color="#FFBC47" stop-opacity="0"/>
      <stop offset="1" stop-color="#E68E43"/>
    </linearGradient>
    <linearGradient id="j" x1="40.083" y1="23.586" x2="43.128" y2="24.278" gradientUnits="userSpaceOnUse">
      <stop stop-color="#FFBC47" stop-opacity="0"/>
      <stop offset="1" stop-color="#E68E43"/>
    </linearGradient>
    <linearGradient id="k" x1="48.021" y1="29.318" x2="53.4" y2="30.442" gradientUnits="userSpaceOnUse">
      <stop stop-color="#FFBC47" stop-opacity="0"/>
      <stop offset="1" stop-color="#E68E43"/>
    </linearGradient>
    <linearGradient id="l" x1="22.939" y1="47.935" x2="14.651" y2="49.574" gradientUnits="userSpaceOnUse">
      <stop offset=".312" stop-color="#FFBC47" stop-opacity="0"/>
      <stop offset="1" stop-color="#FF8900"/>
    </linearGradient>
    <linearGradient id="p" x1="17.728" y1="33.665" x2="22.322" y2="32.972" gradientUnits="userSpaceOnUse">
      <stop stop-color="#FFBC47" stop-opacity="0"/>
      <stop offset="1" stop-color="#E68E43"/>
    </linearGradient>
    <linearGradient id="r" x1="48.277" y1="55.314" x2="86.286" y2="61.942" gradientUnits="userSpaceOnUse">
      <stop stop-color="#C86F34" stop-opacity="0"/>
      <stop offset="1" stop-color="#C86F34"/>
    </linearGradient>
    <radialGradient id="m" cx="0" cy="0" r="1" gradientUnits="userSpaceOnUse" gradientTransform="matrix(21.99252 -5.09153 12.92251 55.81797 23.826 62.543)">
      <stop stop-color="#FFBC47" stop-opacity="0"/>
      <stop offset="1" stop-color="#FF8900"/>
    </radialGradient>
    <radialGradient id="n" cx="0" cy="0" r="1" gradientUnits="userSpaceOnUse" gradientTransform="matrix(6.7248 -5.59609 2.59761 3.12154 47.15 58.8)">
      <stop stop-color="#FBE07A"/>
      <stop offset="1" stop-color="#FFD748" stop-opacity="0"/>
    </radialGradient>
    <radialGradient id="o" cx="0" cy="0" r="1" gradientUnits="userSpaceOnUse" gradientTransform="matrix(-8.49254 -7.39156 3.37243 -3.87476 28.435 59.523)">
      <stop stop-color="#FBE07A"/>
      <stop offset=".265" stop-color="#FCDF73" stop-opacity=".735"/>
      <stop offset=".655" stop-color="#FDDB5F" stop-opacity=".345"/>
      <stop offset="1" stop-color="#FFD748" stop-opacity="0"/>
    </radialGradient>
    <radialGradient id="q" cx="0" cy="0" r="1" gradientUnits="userSpaceOnUse" gradientTransform="rotate(9.433 -182.762 356.699) scale(26.9129)">
      <stop stop-color="#FFBC47" stop-opacity="0"/>
      <stop offset="1" stop-color="#FFA754"/>
    </radialGradient>
    <radialGradient id="s" cx="0" cy="0" r="1" gradientUnits="userSpaceOnUse" gradientTransform="translate(32.442 50.116) scale(56.5998)">
      <stop offset=".521" stop-color="#FFBC47" stop-opacity="0"/>
      <stop offset="1" stop-color="#FF8900"/>
    </radialGradient>
  </defs>
</svg>
